<svg id="Calque_1" data-name="Calque 1" xmlns="http://www.w3.org/2000/svg" xmlns:xlink="http://www.w3.org/1999/xlink" viewBox="0 0 538.89 225.41"><defs><style>.cls-1{fill:url(#Dégradé_sans_nom_22);}.cls-2{fill:#3c3c3b;}.cls-3{fill:url(#Dégradé_sans_nom_27);}.cls-4{fill:url(#Dégradé_sans_nom_22-2);}.cls-5{fill:url(#Dégradé_sans_nom_22-3);}.cls-6{fill:url(#Dégradé_sans_nom_22-4);}.cls-7{fill:url(#Dégradé_sans_nom_22-5);}.cls-8{fill:url(#Dégradé_sans_nom_22-6);}.cls-9{fill:url(#Dégradé_sans_nom_22-7);}.cls-10{fill:url(#Dégradé_sans_nom_22-8);}.cls-11{fill:url(#Dégradé_sans_nom_22-9);}.cls-12{fill:url(#Dégradé_sans_nom_22-10);}.cls-13{fill:url(#Dégradé_sans_nom_22-11);}.cls-14{fill:url(#Dégradé_sans_nom_22-12);}.cls-15{fill:url(#Dégradé_sans_nom_27-2);}.cls-16{fill:url(#Dégradé_sans_nom_27-3);}.cls-17{fill:url(#Dégradé_sans_nom_27-4);}.cls-18{fill:url(#Dégradé_sans_nom_27-5);}.cls-19{fill:url(#Dégradé_sans_nom_27-6);}.cls-20{fill:url(#Dégradé_sans_nom_27-7);}.cls-21{fill:url(#Dégradé_sans_nom_27-8);}.cls-22{fill:url(#Dégradé_sans_nom_27-9);}.cls-23{fill:url(#Dégradé_sans_nom_27-10);}</style><linearGradient id="Dégradé_sans_nom_22" x1="64.2" y1="31.27" x2="128" y2="95.06" gradientUnits="userSpaceOnUse"><stop offset="0" stop-color="#36a9e1"/><stop offset="1" stop-color="#1d71b8"/></linearGradient><linearGradient id="Dégradé_sans_nom_27" x1="29.52" y1="95.84" x2="162" y2="228.32" gradientUnits="userSpaceOnUse"><stop offset="0.32" stop-color="#1d71b8"/><stop offset="0.36" stop-color="#1c6eb3"/><stop offset="0.78" stop-color="#155788"/><stop offset="1" stop-color="#124e77"/></linearGradient><linearGradient id="Dégradé_sans_nom_22-2" x1="223.31" y1="117.6" x2="223.31" y2="151.96" xlink:href="#Dégradé_sans_nom_22"/><linearGradient id="Dégradé_sans_nom_22-3" x1="251.17" y1="125.99" x2="251.17" y2="152.6" xlink:href="#Dégradé_sans_nom_22"/><linearGradient id="Dégradé_sans_nom_22-4" x1="282.35" y1="126.63" x2="282.35" y2="152.36" xlink:href="#Dégradé_sans_nom_22"/><linearGradient id="Dégradé_sans_nom_22-5" x1="310.5" y1="126.29" x2="310.5" y2="151.96" xlink:href="#Dégradé_sans_nom_22"/><linearGradient id="Dégradé_sans_nom_22-6" x1="341.69" y1="126.21" x2="341.69" y2="151.89" xlink:href="#Dégradé_sans_nom_22"/><linearGradient id="Dégradé_sans_nom_22-7" x1="365.67" y1="125.92" x2="365.67" y2="152.53" xlink:href="#Dégradé_sans_nom_22"/><linearGradient id="Dégradé_sans_nom_22-8" x1="388.6" y1="115.56" x2="388.6" y2="151.89" xlink:href="#Dégradé_sans_nom_22"/><linearGradient id="Dégradé_sans_nom_22-9" x1="410.84" y1="125.92" x2="410.84" y2="152.53" xlink:href="#Dégradé_sans_nom_22"/><linearGradient id="Dégradé_sans_nom_22-10" x1="456.41" y1="115.56" x2="456.41" y2="151.89" xlink:href="#Dégradé_sans_nom_22"/><linearGradient id="Dégradé_sans_nom_22-11" x1="477.38" y1="126.02" x2="477.38" y2="152.23" xlink:href="#Dégradé_sans_nom_22"/><linearGradient id="Dégradé_sans_nom_22-12" x1="505.93" y1="126.55" x2="505.93" y2="163.43" xlink:href="#Dégradé_sans_nom_22"/><linearGradient id="Dégradé_sans_nom_27-2" x1="223.79" y1="164.02" x2="223.79" y2="198.39" xlink:href="#Dégradé_sans_nom_27"/><linearGradient id="Dégradé_sans_nom_27-3" x1="253.18" y1="172.42" x2="253.18" y2="199.03" xlink:href="#Dégradé_sans_nom_27"/><linearGradient id="Dégradé_sans_nom_27-4" x1="292.92" y1="172.66" x2="292.92" y2="198.39" xlink:href="#Dégradé_sans_nom_27"/><linearGradient id="Dégradé_sans_nom_27-5" x1="333.79" y1="172.52" x2="333.79" y2="209.68" xlink:href="#Dégradé_sans_nom_27"/><linearGradient id="Dégradé_sans_nom_27-6" x1="362.71" y1="172.52" x2="362.71" y2="198.73" xlink:href="#Dégradé_sans_nom_27"/><linearGradient id="Dégradé_sans_nom_27-7" x1="393.49" y1="172.66" x2="393.49" y2="198.39" xlink:href="#Dégradé_sans_nom_27"/><linearGradient id="Dégradé_sans_nom_27-8" x1="416.12" y1="173.05" x2="416.12" y2="198.39" xlink:href="#Dégradé_sans_nom_27"/><linearGradient id="Dégradé_sans_nom_27-9" x1="439.05" y1="172.42" x2="439.05" y2="199.03" xlink:href="#Dégradé_sans_nom_27"/><linearGradient id="Dégradé_sans_nom_27-10" x1="470.57" y1="172.66" x2="470.57" y2="198.39" xlink:href="#Dégradé_sans_nom_27"/></defs><polygon class="cls-1" points="116.73 106.33 171.79 11.12 165.38 0 0.34 95.13 6.74 106.25 116.73 106.33"/><polygon class="cls-2" points="127.67 112.53 182.59 207.81 195.42 207.82 195.56 17.32 182.73 17.31 127.67 112.53"/><polygon class="cls-3" points="116.41 119.01 6.42 118.94 0 130.04 164.91 225.41 171.34 214.3 116.41 119.01"/><path class="cls-2" d="M230.36,70.58H225V97.7H208.13V29.16H225V55.59h5.39l16.15-26.43h19.58L244.75,62.74l22.13,35H247.1Z"/><path class="cls-2" d="M281.42,95.64a24.13,24.13,0,0,1-9.94-9.35A26.91,26.91,0,0,1,268,72.44a26.9,26.9,0,0,1,3.52-13.86,24.13,24.13,0,0,1,9.94-9.35,34.15,34.15,0,0,1,29.42,0,24.18,24.18,0,0,1,9.89,9.35,26.9,26.9,0,0,1,3.53,13.86,26.92,26.92,0,0,1-3.53,13.85,24.18,24.18,0,0,1-9.89,9.35,34.15,34.15,0,0,1-29.42,0Zm5.73-13.9a13.16,13.16,0,0,0,17.92,0,12.79,12.79,0,0,0,3.42-9.3,12.85,12.85,0,0,0-3.42-9.26,11.81,11.81,0,0,0-8.91-3.57,11.94,11.94,0,0,0-9,3.57,12.73,12.73,0,0,0-3.48,9.26A12.75,12.75,0,0,0,287.15,81.74Z"/><path class="cls-2" d="M333.85,47.17h14.59l.2,6.86q6.66-7.64,16.06-7.64a17.79,17.79,0,0,1,9,2.2,15.92,15.92,0,0,1,6.12,6.32,22.32,22.32,0,0,1,17.82-8.52q8.81,0,14,5.39t5.24,14.39V97.7h-16V70.38q0-4.8-2.21-7.34a7.78,7.78,0,0,0-6.22-2.55,8.5,8.5,0,0,0-6.75,2.94,11.53,11.53,0,0,0-2.55,7.83V97.7H367.54V70.38q0-4.8-2.21-7.34a7.75,7.75,0,0,0-6.21-2.55,8.5,8.5,0,0,0-6.76,2.94,11.53,11.53,0,0,0-2.55,7.83V97.7h-16Z"/><path class="cls-2" d="M452,97.21a19.7,19.7,0,0,1-7.25-4.9V152h-16V47.17h14.59l.2,7.35a21.55,21.55,0,0,1,7.63-6.22,22.42,22.42,0,0,1,10-2.2A22.39,22.39,0,0,1,481.9,58.78a29.94,29.94,0,0,1,3,13.66,29.93,29.93,0,0,1-3,13.65,23,23,0,0,1-8.42,9.4,22.48,22.48,0,0,1-12.24,3.38A24.76,24.76,0,0,1,452,97.21ZM448,81.69a12.84,12.84,0,0,0,17.77,0,12.79,12.79,0,0,0,3.43-9.25,12.82,12.82,0,0,0-3.43-9.26,12.84,12.84,0,0,0-17.77,0,12.76,12.76,0,0,0-3.47,9.26A12.74,12.74,0,0,0,448,81.69Z"/><path class="cls-2" d="M495,94a14.75,14.75,0,0,1-4.75-11.4,14.77,14.77,0,0,1,5.93-12.44q5.93-4.5,16.2-4.5a46.29,46.29,0,0,1,11.85,1.57V66q0-4-2.59-5.87t-8.28-1.86a30.43,30.43,0,0,0-7.49.93,60.5,60.5,0,0,0-8.37,2.89L493.65,51a58.55,58.55,0,0,1,10.82-3.77,49.81,49.81,0,0,1,11-1.12q11.25,0,17.33,5.28t6.07,14.89V97.7H525.08l-.29-6.17a23,23,0,0,1-7.69,5,25,25,0,0,1-9.54,1.86Q499.72,98.38,495,94Zm12.39-8.12a7.93,7.93,0,0,0,5.09,1.42,12.37,12.37,0,0,0,8.23-2.79,10.09,10.09,0,0,0,3.72-7,36.91,36.91,0,0,0-10-1.67,11.76,11.76,0,0,0-6.56,1.52,5,5,0,0,0-2.25,4.46A4.9,4.9,0,0,0,507.36,85.9Z"/><path class="cls-4" d="M219.09,139.25,206.71,117.6h9.63l3.88,7.11,3.14,6.14,3.29-6.14,3.92-7.11h9.33l-12.37,21.65V152h-8.44Z"/><path class="cls-5" d="M243.8,150.93a12.06,12.06,0,0,1-5-4.69,14.51,14.51,0,0,1,0-13.89,12.12,12.12,0,0,1,5-4.69,15.87,15.87,0,0,1,7.39-1.67,15.7,15.7,0,0,1,7.37,1.67,12.13,12.13,0,0,1,5,4.69,14.58,14.58,0,0,1,0,13.89,12.07,12.07,0,0,1-5,4.69,15.58,15.58,0,0,1-7.37,1.67A15.75,15.75,0,0,1,243.8,150.93Zm2.88-7a6,6,0,0,0,4.51,1.77,5.93,5.93,0,0,0,4.47-1.77,7.15,7.15,0,0,0,0-9.3,5.88,5.88,0,0,0-4.47-1.79,6,6,0,0,0-4.49,1.79,7.11,7.11,0,0,0,0,9.3Z"/><path class="cls-6" d="M294.94,152h-7.32l-.09-3.43a11.21,11.21,0,0,1-3.76,2.89,10.79,10.79,0,0,1-4.59.94,8.93,8.93,0,0,1-6.87-2.75,10.08,10.08,0,0,1-2.56-7.17V126.63h8v13.7c0,3.3,1.4,5,4.22,5a4.58,4.58,0,0,0,3.65-1.48,5.76,5.76,0,0,0,1.31-4V126.63h8Z"/><path class="cls-7" d="M301.12,126.63h7.32l.1,3.44a9.87,9.87,0,0,1,3.29-2.75,9.44,9.44,0,0,1,4.47-1,10.8,10.8,0,0,1,3.58.59l-1.77,7.41a10.73,10.73,0,0,0-3.14-.49,5.19,5.19,0,0,0-4.42,1.87,8.47,8.47,0,0,0-1.42,5.25v11h-8Z"/><path class="cls-8" d="M332.31,126.55h7.32l.1,3.44a10,10,0,0,1,3.29-2.75,9.39,9.39,0,0,1,4.47-1,11.06,11.06,0,0,1,3.58.59l-1.77,7.42a10.75,10.75,0,0,0-3.14-.5,5.22,5.22,0,0,0-4.42,1.87,8.47,8.47,0,0,0-1.42,5.25v11h-8Z"/><path class="cls-9" d="M358.31,150.86a12.06,12.06,0,0,1-5-4.69,14.51,14.51,0,0,1,0-13.89,12,12,0,0,1,5-4.69,17.12,17.12,0,0,1,14.75,0,12.07,12.07,0,0,1,5,4.69,14.51,14.51,0,0,1,0,13.89,12.13,12.13,0,0,1-5,4.69,17.12,17.12,0,0,1-14.75,0Zm2.87-7a6.59,6.59,0,0,0,9,0,7.16,7.16,0,0,0,0-9.31,5.94,5.94,0,0,0-4.47-1.79,6,6,0,0,0-4.49,1.79,7.11,7.11,0,0,0,0,9.31Z"/><path class="cls-10" d="M384.6,115.56h8v36.33h-8Z"/><path class="cls-11" d="M404.19,150.86a12.1,12.1,0,0,1-5-4.67,13.32,13.32,0,0,1-1.77-6.92,14,14,0,0,1,1.7-6.92,11.92,11.92,0,0,1,4.78-4.74,14.41,14.41,0,0,1,7-1.69,14,14,0,0,1,7,1.71,12.07,12.07,0,0,1,4.71,4.77,14.08,14.08,0,0,1,1.67,6.87,18.54,18.54,0,0,1-.25,2.85h-18.9a5.35,5.35,0,0,0,2.48,3.16,8.84,8.84,0,0,0,4.69,1.16,12.69,12.69,0,0,0,7.61-2.5l3.09,5a15.68,15.68,0,0,1-5.05,2.65,20.34,20.34,0,0,1-6.24.94A16.2,16.2,0,0,1,404.19,150.86ZM416.9,137a6.46,6.46,0,0,0-2-3.61,5.81,5.81,0,0,0-3.91-1.35,5.87,5.87,0,0,0-3.9,1.35,6.2,6.2,0,0,0-2,3.61Z"/><path class="cls-12" d="M452.41,115.56h8v36.33h-8Z"/><path class="cls-13" d="M467.56,150.05a8.06,8.06,0,0,1,.58-12c2-1.5,4.69-2.25,8.13-2.25a23.47,23.47,0,0,1,5.94.78V136a3.36,3.36,0,0,0-1.3-2.94,7.25,7.25,0,0,0-4.15-.94,15.23,15.23,0,0,0-3.75.47,29.81,29.81,0,0,0-4.2,1.45l-1.92-5.55a30,30,0,0,1,5.43-1.89,25.27,25.27,0,0,1,5.52-.56q5.64,0,8.69,2.65a9.35,9.35,0,0,1,3.05,7.46v15.76h-6.93l-.14-3.09a11.6,11.6,0,0,1-3.86,2.5,12.56,12.56,0,0,1-4.78.93A9,9,0,0,1,467.56,150.05Zm6.21-4.08a3.93,3.93,0,0,0,2.55.71,6.14,6.14,0,0,0,4.12-1.4,5,5,0,0,0,1.87-3.51,18.72,18.72,0,0,0-5-.83,5.86,5.86,0,0,0-3.29.76,2.53,2.53,0,0,0-1.13,2.24A2.45,2.45,0,0,0,473.77,146Z"/><path class="cls-14" d="M493.85,162.59l1.47-6.63a10.27,10.27,0,0,0,2.8.44,5,5,0,0,0,2.87-.78,5.51,5.51,0,0,0,1.89-2.55l-11.09-26.52h8.69l4.12,11.3,1.82,5.35,1.52-5.35,3.63-11.3h8.5L509.41,156a11.29,11.29,0,0,1-4,5.6,11.09,11.09,0,0,1-6.49,1.82A15.94,15.94,0,0,1,493.85,162.59Z"/><path class="cls-15" d="M220.21,184.79h-2.7v13.6h-8.44V164h8.44v13.26h2.7l8.1-13.26h9.82l-10.7,16.84,11.09,17.53h-9.91Z"/><path class="cls-16" d="M245.81,197.36a12.12,12.12,0,0,1-5-4.69,14.53,14.53,0,0,1,0-13.9,12.1,12.1,0,0,1,5-4.68,15.75,15.75,0,0,1,7.39-1.67,15.58,15.58,0,0,1,7.37,1.67,12.17,12.17,0,0,1,5,4.68,14.6,14.6,0,0,1,0,13.9,12.19,12.19,0,0,1-5,4.69A15.7,15.7,0,0,1,253.2,199,15.87,15.87,0,0,1,245.81,197.36Zm2.88-7a6,6,0,0,0,4.51,1.76,6,6,0,0,0,4.47-1.76,7.16,7.16,0,0,0,0-9.31,5.91,5.91,0,0,0-4.47-1.79,6,6,0,0,0-4.49,1.79,7.13,7.13,0,0,0,0,9.31Z"/><path class="cls-17" d="M272.1,173.05h7.32l.1,3.44a10.32,10.32,0,0,1,8.05-3.83,8.87,8.87,0,0,1,4.49,1.11,7.85,7.85,0,0,1,3.07,3.16,11.23,11.23,0,0,1,8.94-4.27,9.37,9.37,0,0,1,7,2.7,9.92,9.92,0,0,1,2.63,7.22v15.81h-8v-13.7a5.45,5.45,0,0,0-1.11-3.68,3.91,3.91,0,0,0-3.12-1.28,4.26,4.26,0,0,0-3.38,1.47,5.83,5.83,0,0,0-1.28,3.93v13.26H289v-13.7a5.45,5.45,0,0,0-1.1-3.68,3.92,3.92,0,0,0-3.12-1.28,4.26,4.26,0,0,0-3.39,1.47,5.82,5.82,0,0,0-1.27,3.93v13.26h-8Z"/><path class="cls-18" d="M331.36,198.14a9.77,9.77,0,0,1-3.63-2.45v14h-8V173.05H327l.1,3.69a11,11,0,0,1,3.83-3.12,11.19,11.19,0,0,1,5-1.1,11.22,11.22,0,0,1,10.36,6.35,16.2,16.2,0,0,1,0,13.7,11.65,11.65,0,0,1-4.23,4.71A11.28,11.28,0,0,1,336,199,12.41,12.41,0,0,1,331.36,198.14Zm-2-7.78a6.45,6.45,0,0,0,8.92,0,7.12,7.12,0,0,0,0-9.28,6.45,6.45,0,0,0-8.92,0,7.06,7.06,0,0,0,0,9.28Z"/><path class="cls-19" d="M352.89,196.55a8.05,8.05,0,0,1,.59-12q3-2.25,8.12-2.25a23.55,23.55,0,0,1,5.95.78v-.64a3.38,3.38,0,0,0-1.3-2.94,7.27,7.27,0,0,0-4.15-.94,15.31,15.31,0,0,0-3.76.47,29.81,29.81,0,0,0-4.2,1.45L352.23,175a29.64,29.64,0,0,1,5.42-1.89,24.7,24.7,0,0,1,5.53-.56c3.76,0,6.66.88,8.68,2.65a9.35,9.35,0,0,1,3.05,7.46v15.76H368l-.15-3.09a11.65,11.65,0,0,1-3.85,2.5,12.61,12.61,0,0,1-4.79.93A9,9,0,0,1,352.89,196.55Zm6.21-4.08a4,4,0,0,0,2.55.71,6.19,6.19,0,0,0,4.13-1.4,5,5,0,0,0,1.86-3.51,18.72,18.72,0,0,0-5-.83,5.92,5.92,0,0,0-3.3.76,2.52,2.52,0,0,0-1.12,2.23A2.45,2.45,0,0,0,359.1,192.47Z"/><path class="cls-20" d="M380.9,173.05h7.31l.1,3.49a11.63,11.63,0,0,1,3.74-2.92,10.55,10.55,0,0,1,4.61-1,8.93,8.93,0,0,1,6.87,2.75,10.11,10.11,0,0,1,2.55,7.17v15.81h-8V184.74q0-5-4.22-5a4.6,4.6,0,0,0-3.65,1.47,5.8,5.8,0,0,0-1.31,4v13.21h-8Z"/><path class="cls-21" d="M412.12,173.05h8v25.34h-8Z"/><path class="cls-22" d="M431.69,197.36a12.09,12.09,0,0,1-5-4.69,14.6,14.6,0,0,1,0-13.9,12.06,12.06,0,0,1,5-4.68,17.12,17.12,0,0,1,14.75,0,12.11,12.11,0,0,1,5,4.68,14.53,14.53,0,0,1,0,13.9,12.13,12.13,0,0,1-5,4.69,17.12,17.12,0,0,1-14.75,0Zm2.87-7a6,6,0,0,0,4.52,1.76,6,6,0,0,0,4.46-1.76,7.16,7.16,0,0,0,0-9.31,5.91,5.91,0,0,0-4.46-1.79,6,6,0,0,0-4.5,1.79,7.13,7.13,0,0,0,0,9.31Z"/><path class="cls-23" d="M458,173.05h7.31l.1,3.49a11.7,11.7,0,0,1,3.73-2.92,10.63,10.63,0,0,1,4.62-1,8.93,8.93,0,0,1,6.87,2.75,10.11,10.11,0,0,1,2.55,7.17v15.81h-8V184.74q0-5-4.22-5a4.64,4.64,0,0,0-3.66,1.47,5.85,5.85,0,0,0-1.3,4v13.21h-8Z"/><circle class="cls-2" cx="416.12" cy="164.73" r="4.99"/></svg>