<svg id="Calque_1" data-name="Calque 1" xmlns="http://www.w3.org/2000/svg" xmlns:xlink="http://www.w3.org/1999/xlink" viewBox="0 0 554 231.73"><defs><style>.cls-1{fill:url(#Dégradé_sans_nom_132);}.cls-2{fill:#fff;}.cls-3{fill:url(#Dégradé_sans_nom_130);}.cls-4{fill:url(#Dégradé_sans_nom_147);}.cls-5{fill:url(#Dégradé_sans_nom_147-2);}.cls-6{fill:url(#Dégradé_sans_nom_147-3);}.cls-7{fill:url(#Dégradé_sans_nom_147-4);}.cls-8{fill:url(#Dégradé_sans_nom_147-5);}.cls-9{fill:url(#Dégradé_sans_nom_147-6);}.cls-10{fill:url(#Dégradé_sans_nom_147-7);}.cls-11{fill:url(#Dégradé_sans_nom_147-8);}.cls-12{fill:url(#Dégradé_sans_nom_147-9);}.cls-13{fill:url(#Dégradé_sans_nom_147-10);}.cls-14{fill:url(#Dégradé_sans_nom_147-11);}.cls-15{fill:url(#Dégradé_sans_nom_137);}.cls-16{fill:url(#Dégradé_sans_nom_137-2);}.cls-17{fill:url(#Dégradé_sans_nom_137-3);}.cls-18{fill:url(#Dégradé_sans_nom_137-4);}.cls-19{fill:url(#Dégradé_sans_nom_137-5);}.cls-20{fill:url(#Dégradé_sans_nom_137-6);}.cls-21{fill:url(#Dégradé_sans_nom_137-7);}.cls-22{fill:url(#Dégradé_sans_nom_137-8);}.cls-23{fill:url(#Dégradé_sans_nom_137-9);}</style><linearGradient id="Dégradé_sans_nom_132" x1="66" y1="32.14" x2="131.59" y2="97.73" gradientUnits="userSpaceOnUse"><stop offset="0" stop-color="#d4f1f9"/><stop offset="0.34" stop-color="#9ed8f0"/><stop offset="1" stop-color="#75aedc"/></linearGradient><linearGradient id="Dégradé_sans_nom_130" x1="30.35" y1="98.53" x2="166.54" y2="234.73" gradientUnits="userSpaceOnUse"><stop offset="0" stop-color="#d4f1f9"/><stop offset="0.2" stop-color="#94c6e3"/><stop offset="0.75" stop-color="#5287aa"/></linearGradient><linearGradient id="Dégradé_sans_nom_147" x1="229.57" y1="120.89" x2="229.57" y2="156.22" gradientUnits="userSpaceOnUse"><stop offset="0" stop-color="#9ed8f0"/><stop offset="0.73" stop-color="#75aedc"/></linearGradient><linearGradient id="Dégradé_sans_nom_147-2" x1="258.21" y1="129.53" x2="258.21" y2="156.88" xlink:href="#Dégradé_sans_nom_147"/><linearGradient id="Dégradé_sans_nom_147-3" x1="290.26" y1="130.18" x2="290.26" y2="156.63" xlink:href="#Dégradé_sans_nom_147"/><linearGradient id="Dégradé_sans_nom_147-4" x1="319.21" y1="129.83" x2="319.21" y2="156.22" xlink:href="#Dégradé_sans_nom_147"/><linearGradient id="Dégradé_sans_nom_147-5" x1="351.27" y1="129.75" x2="351.27" y2="156.15" xlink:href="#Dégradé_sans_nom_147"/><linearGradient id="Dégradé_sans_nom_147-6" x1="375.93" y1="129.45" x2="375.93" y2="156.8" xlink:href="#Dégradé_sans_nom_147"/><linearGradient id="Dégradé_sans_nom_147-7" x1="399.5" y1="118.8" x2="399.5" y2="156.15" xlink:href="#Dégradé_sans_nom_147"/><linearGradient id="Dégradé_sans_nom_147-8" x1="422.36" y1="129.45" x2="422.36" y2="156.8" xlink:href="#Dégradé_sans_nom_147"/><linearGradient id="Dégradé_sans_nom_147-9" x1="469.21" y1="118.8" x2="469.21" y2="156.15" xlink:href="#Dégradé_sans_nom_147"/><linearGradient id="Dégradé_sans_nom_147-10" x1="490.76" y1="129.55" x2="490.76" y2="156.5" xlink:href="#Dégradé_sans_nom_147"/><linearGradient id="Dégradé_sans_nom_147-11" x1="520.11" y1="130.1" x2="520.11" y2="168.01" xlink:href="#Dégradé_sans_nom_147"/><linearGradient id="Dégradé_sans_nom_137" x1="230.07" y1="168.62" x2="230.07" y2="203.95" gradientUnits="userSpaceOnUse"><stop offset="0" stop-color="#94c6e3"/><stop offset="1" stop-color="#5287aa"/></linearGradient><linearGradient id="Dégradé_sans_nom_137-2" x1="260.28" y1="177.25" x2="260.28" y2="204.61" xlink:href="#Dégradé_sans_nom_137"/><linearGradient id="Dégradé_sans_nom_137-3" x1="301.14" y1="177.51" x2="301.14" y2="203.95" xlink:href="#Dégradé_sans_nom_137"/><linearGradient id="Dégradé_sans_nom_137-4" x1="343.15" y1="177.35" x2="343.15" y2="215.56" xlink:href="#Dégradé_sans_nom_137"/><linearGradient id="Dégradé_sans_nom_137-5" x1="372.88" y1="177.35" x2="372.88" y2="204.31" xlink:href="#Dégradé_sans_nom_137"/><linearGradient id="Dégradé_sans_nom_137-6" x1="404.53" y1="177.51" x2="404.53" y2="203.95" xlink:href="#Dégradé_sans_nom_137"/><linearGradient id="Dégradé_sans_nom_137-7" x1="427.79" y1="177.91" x2="427.79" y2="203.95" xlink:href="#Dégradé_sans_nom_137"/><linearGradient id="Dégradé_sans_nom_137-8" x1="451.36" y1="177.25" x2="451.36" y2="204.61" xlink:href="#Dégradé_sans_nom_137"/><linearGradient id="Dégradé_sans_nom_137-9" x1="483.77" y1="177.51" x2="483.77" y2="203.95" xlink:href="#Dégradé_sans_nom_137"/></defs><polygon class="cls-1" points="120 109.31 176.61 11.43 170.02 0 0.35 97.8 6.93 109.23 120 109.31"/><polygon class="cls-2" points="131.25 115.68 187.71 213.64 200.9 213.65 201.04 17.81 187.85 17.8 131.25 115.68"/><polygon class="cls-3" points="119.67 122.35 6.6 122.27 0 133.69 169.54 231.73 176.14 220.31 119.67 122.35"/><path class="cls-2" d="M236.82,72.56h-5.54v27.88H214V30h17.31V57.15h5.54L253.43,30h20.13L251.61,64.5l22.75,35.94H254Z"/><path class="cls-2" d="M289.31,98.32a24.74,24.74,0,0,1-10.21-9.61,27.62,27.62,0,0,1-3.63-14.24,27.66,27.66,0,0,1,3.63-14.25,24.8,24.8,0,0,1,10.21-9.61,35.16,35.16,0,0,1,30.25,0,24.94,24.94,0,0,1,10.17,9.61,27.75,27.75,0,0,1,3.62,14.25,27.72,27.72,0,0,1-3.62,14.24,24.88,24.88,0,0,1-10.17,9.61,35.16,35.16,0,0,1-30.25,0ZM295.2,84a12.36,12.36,0,0,0,9.26,3.62A12.22,12.22,0,0,0,313.62,84a13.13,13.13,0,0,0,3.52-9.56A13.21,13.21,0,0,0,313.62,65a12.15,12.15,0,0,0-9.16-3.67A12.31,12.31,0,0,0,295.25,65a13.12,13.12,0,0,0-3.57,9.52A13.13,13.13,0,0,0,295.2,84Z"/><path class="cls-2" d="M343.22,48.5h15l.21,7q6.84-7.84,16.5-7.85A18.38,18.38,0,0,1,384.13,50a16.37,16.37,0,0,1,6.3,6.5,22.94,22.94,0,0,1,18.32-8.76q9.06,0,14.44,5.54T428.58,68v32.42H412.17V72.35q0-4.92-2.27-7.55a8,8,0,0,0-6.39-2.62,8.74,8.74,0,0,0-6.94,3A11.86,11.86,0,0,0,394,73.26v27.18H377.84V72.35q0-4.92-2.26-7.55a8,8,0,0,0-6.39-2.62,8.74,8.74,0,0,0-6.95,3,11.86,11.86,0,0,0-2.62,8.06v27.18h-16.4Z"/><path class="cls-2" d="M464.71,99.93a20.43,20.43,0,0,1-7.45-5v61.32H440.85V48.5h15l.21,7.55a22.19,22.19,0,0,1,7.85-6.4,23,23,0,0,1,10.26-2.26,23,23,0,0,1,21.24,13,30.8,30.8,0,0,1,3.13,14,30.79,30.79,0,0,1-3.13,14,23.67,23.67,0,0,1-8.65,9.66,23.16,23.16,0,0,1-12.59,3.48A25.55,25.55,0,0,1,464.71,99.93Zm-4.18-16a13.2,13.2,0,0,0,18.27,0,13.17,13.17,0,0,0,3.53-9.51A13.21,13.21,0,0,0,478.8,65a13.2,13.2,0,0,0-18.27,0A13.12,13.12,0,0,0,457,74.47,13.08,13.08,0,0,0,460.53,84Z"/><path class="cls-2" d="M508.85,96.66A15.16,15.16,0,0,1,504,84.94a15.18,15.18,0,0,1,6.09-12.79q6.09-4.62,16.66-4.63a48,48,0,0,1,12.18,1.61V67.82q0-4.12-2.67-6c-1.77-1.27-4.61-1.91-8.5-1.91a31.06,31.06,0,0,0-7.7,1,60.88,60.88,0,0,0-8.61,3l-3.93-11.38a59.87,59.87,0,0,1,11.13-3.87,51.1,51.1,0,0,1,11.32-1.16q11.58,0,17.82,5.43T554,68.13v32.31H539.81l-.3-6.35a23.64,23.64,0,0,1-7.91,5.14,25.78,25.78,0,0,1-9.81,1.91Q513.73,101.14,508.85,96.66Zm12.74-8.35a8.19,8.19,0,0,0,5.23,1.46,12.73,12.73,0,0,0,8.46-2.87,10.29,10.29,0,0,0,3.82-7.2A38,38,0,0,0,528.84,78q-4.44,0-6.75,1.56a5.18,5.18,0,0,0-2.31,4.58A5.05,5.05,0,0,0,521.59,88.31Z"/><path class="cls-4" d="M225.23,143.15l-12.72-22.26h9.89l4,7.32,3.23,6.31,3.38-6.31,4-7.32h9.59l-12.72,22.26v13.07h-8.68Z"/><path class="cls-5" d="M250.64,155.17a12.47,12.47,0,0,1-5.12-4.82,14.94,14.94,0,0,1,0-14.29,12.41,12.41,0,0,1,5.12-4.82,16.33,16.33,0,0,1,7.6-1.71,16.15,16.15,0,0,1,7.57,1.71,12.42,12.42,0,0,1,5.1,4.82,15,15,0,0,1,0,14.29,12.48,12.48,0,0,1-5.1,4.82,16.15,16.15,0,0,1-7.57,1.71A16.33,16.33,0,0,1,250.64,155.17Zm3-7.17a6.21,6.21,0,0,0,4.65,1.82,6.13,6.13,0,0,0,4.59-1.82,7.35,7.35,0,0,0,0-9.57,6.11,6.11,0,0,0-4.59-1.84,6.19,6.19,0,0,0-4.62,1.84,7.34,7.34,0,0,0,0,9.57Z"/><path class="cls-6" d="M303.21,156.22h-7.52l-.1-3.53a11.59,11.59,0,0,1-3.86,3,11.21,11.21,0,0,1-4.72,1,9.17,9.17,0,0,1-7.07-2.83,10.39,10.39,0,0,1-2.62-7.37V130.18h8.22v14.08q0,5.1,4.35,5.1a4.73,4.73,0,0,0,3.75-1.51,6,6,0,0,0,1.34-4.09V130.18h8.23Z"/><path class="cls-7" d="M309.57,130.18h7.52l.1,3.54a10.3,10.3,0,0,1,3.38-2.83,9.72,9.72,0,0,1,4.6-1.06,11.4,11.4,0,0,1,3.68.6L327,138.06a11,11,0,0,0-3.23-.51,5.34,5.34,0,0,0-4.54,1.92,8.71,8.71,0,0,0-1.46,5.4v11.35h-8.23Z"/><path class="cls-8" d="M341.63,130.1h7.52l.1,3.54a10.23,10.23,0,0,1,3.39-2.83,9.65,9.65,0,0,1,4.59-1.06,11.1,11.1,0,0,1,3.68.61L359.1,138a11,11,0,0,0-3.23-.51,5.36,5.36,0,0,0-4.55,1.92,8.78,8.78,0,0,0-1.46,5.4v11.36h-8.23Z"/><path class="cls-9" d="M368.36,155.09a12.44,12.44,0,0,1-5.13-4.82,15,15,0,0,1,0-14.29,12.5,12.5,0,0,1,5.13-4.82,17.66,17.66,0,0,1,15.16,0,12.48,12.48,0,0,1,5.1,4.82,14.94,14.94,0,0,1,0,14.29,12.42,12.42,0,0,1-5.1,4.82,17.66,17.66,0,0,1-15.16,0Zm2.95-7.17a6.77,6.77,0,0,0,9.24,0,7.37,7.37,0,0,0,0-9.56,6.66,6.66,0,0,0-9.21,0,7.29,7.29,0,0,0,0,9.56Z"/><path class="cls-10" d="M395.38,118.8h8.23v37.35h-8.23Z"/><path class="cls-11" d="M415.52,155.09a12.45,12.45,0,0,1-5.15-4.8,13.72,13.72,0,0,1-1.81-7.11,14.41,14.41,0,0,1,1.74-7.12,12.2,12.2,0,0,1,4.92-4.87,14.77,14.77,0,0,1,7.22-1.74,14.43,14.43,0,0,1,7.17,1.76,12.4,12.4,0,0,1,4.84,4.9,14.5,14.5,0,0,1,1.71,7.07,19.72,19.72,0,0,1-.25,2.93H416.48a5.54,5.54,0,0,0,2.55,3.25,9.11,9.11,0,0,0,4.82,1.18,12.93,12.93,0,0,0,7.82-2.57l3.18,5.15a16,16,0,0,1-5.19,2.72,20.85,20.85,0,0,1-6.42,1A16.69,16.69,0,0,1,415.52,155.09Zm13.07-14.24a6.63,6.63,0,0,0-2.09-3.71,5.9,5.9,0,0,0-4-1.38,6,6,0,0,0-4,1.38,6.26,6.26,0,0,0-2.1,3.71Z"/><path class="cls-12" d="M465.1,118.8h8.22v37.35H465.1Z"/><path class="cls-13" d="M480.67,154.25a7.55,7.55,0,0,1-2.45-5.87,7.63,7.63,0,0,1,3-6.42q3.06-2.31,8.35-2.31a23.85,23.85,0,0,1,6.11.8v-.65a3.47,3.47,0,0,0-1.33-3,7.44,7.44,0,0,0-4.27-1,15.64,15.64,0,0,0-3.86.48,30.56,30.56,0,0,0-4.31,1.49l-2-5.71a29.77,29.77,0,0,1,5.57-1.94,25.44,25.44,0,0,1,5.68-.58q5.81,0,8.94,2.72A9.66,9.66,0,0,1,503.3,140v16.2h-7.11L496,153a11.84,11.84,0,0,1-4,2.57,12.84,12.84,0,0,1-4.92,1A9.19,9.19,0,0,1,480.67,154.25Zm6.38-4.19a4.1,4.1,0,0,0,2.63.74,6.39,6.39,0,0,0,4.24-1.44,5.22,5.22,0,0,0,1.92-3.61,19.2,19.2,0,0,0-5.15-.86,6.09,6.09,0,0,0-3.39.78,2.62,2.62,0,0,0-1.16,2.3A2.53,2.53,0,0,0,487.05,150.06Z"/><path class="cls-14" d="M507.7,167.15l1.51-6.81a10.91,10.91,0,0,0,2.88.45A5.2,5.2,0,0,0,515,160a5.72,5.72,0,0,0,1.94-2.63l-11.4-27.26h8.93l4.24,11.61,1.87,5.51,1.56-5.51,3.74-11.61h8.73L523.7,160.39a11.6,11.6,0,0,1-4.09,5.75A11.35,11.35,0,0,1,513,168,16.5,16.5,0,0,1,507.7,167.15Z"/><path class="cls-15" d="M226.39,190h-2.78v14h-8.68V168.62h8.68v13.63h2.78l8.32-13.63h10.1l-11,17.31,11.41,18H235Z"/><path class="cls-16" d="M252.71,202.89a12.44,12.44,0,0,1-5.13-4.82,15,15,0,0,1,0-14.28,12.44,12.44,0,0,1,5.13-4.82,17.58,17.58,0,0,1,15.17,0,12.45,12.45,0,0,1,5.09,4.82,14.92,14.92,0,0,1,0,14.28,12.45,12.45,0,0,1-5.09,4.82,17.58,17.58,0,0,1-15.17,0Zm2.95-7.16a6.23,6.23,0,0,0,4.64,1.81,6.13,6.13,0,0,0,4.59-1.81,7.35,7.35,0,0,0,0-9.57,6,6,0,0,0-4.59-1.84,6.17,6.17,0,0,0-4.62,1.84,7.32,7.32,0,0,0,0,9.57Z"/><path class="cls-17" d="M279.73,177.91h7.53l.1,3.53a10.59,10.59,0,0,1,8.28-3.93,9.13,9.13,0,0,1,4.61,1.13,8.2,8.2,0,0,1,3.16,3.26,11.48,11.48,0,0,1,9.18-4.39,9.65,9.65,0,0,1,7.25,2.77,10.22,10.22,0,0,1,2.7,7.42V204h-8.23V189.87a5.63,5.63,0,0,0-1.14-3.79,4,4,0,0,0-3.2-1.31,4.37,4.37,0,0,0-3.48,1.52,5.89,5.89,0,0,0-1.32,4V204H297.1V189.87a5.63,5.63,0,0,0-1.14-3.79,4,4,0,0,0-3.2-1.31,4.4,4.4,0,0,0-3.49,1.52,5.94,5.94,0,0,0-1.31,4V204h-8.23Z"/><path class="cls-18" d="M340.66,203.7a10.17,10.17,0,0,1-3.74-2.53v14.39h-8.23V177.91h7.52l.11,3.78a11.07,11.07,0,0,1,3.93-3.2,11.52,11.52,0,0,1,5.15-1.14,11.81,11.81,0,0,1,6.31,1.72,11.68,11.68,0,0,1,4.34,4.82,16.67,16.67,0,0,1,0,14.08,12,12,0,0,1-4.34,4.85,11.64,11.64,0,0,1-6.31,1.74A12.77,12.77,0,0,1,340.66,203.7Zm-2.1-8a6.62,6.62,0,0,0,9.16,0,7.31,7.31,0,0,0,0-9.54,6.62,6.62,0,0,0-9.16,0,7.25,7.25,0,0,0,0,9.54Z"/><path class="cls-19" d="M362.79,202.06a8.27,8.27,0,0,1,.6-12.29q3.06-2.33,8.35-2.32a24.36,24.36,0,0,1,6.11.8v-.65a3.47,3.47,0,0,0-1.33-3,7.47,7.47,0,0,0-4.27-1,15.64,15.64,0,0,0-3.86.48,31.09,31.09,0,0,0-4.32,1.49l-2-5.7a30.19,30.19,0,0,1,5.58-1.95,26,26,0,0,1,5.68-.58q5.81,0,8.93,2.73a9.62,9.62,0,0,1,3.13,7.67V204h-7.11l-.15-3.18a11.86,11.86,0,0,1-4,2.58,13,13,0,0,1-4.92,1A9.19,9.19,0,0,1,362.79,202.06Zm6.38-4.19a4.09,4.09,0,0,0,2.62.73,6.4,6.4,0,0,0,4.25-1.44,5.17,5.17,0,0,0,1.91-3.61,19,19,0,0,0-5.14-.85,6.09,6.09,0,0,0-3.39.78,2.6,2.6,0,0,0-1.16,2.29A2.53,2.53,0,0,0,369.17,197.87Z"/><path class="cls-20" d="M391.58,177.91h7.52l.1,3.58a12,12,0,0,1,3.84-3,10.86,10.86,0,0,1,4.74-1,9.16,9.16,0,0,1,7.07,2.82,10.39,10.39,0,0,1,2.62,7.37V204h-8.22v-14q0-5.14-4.34-5.15a4.75,4.75,0,0,0-3.76,1.52,5.89,5.89,0,0,0-1.34,4.08V204h-8.23Z"/><path class="cls-21" d="M423.68,177.91h8.23v26h-8.23Z"/><path class="cls-22" d="M443.79,202.89a12.41,12.41,0,0,1-5.12-4.82,14.92,14.92,0,0,1,0-14.28,12.41,12.41,0,0,1,5.12-4.82,16.21,16.21,0,0,1,7.6-1.72A16,16,0,0,1,459,179a12.48,12.48,0,0,1,5.1,4.82,15,15,0,0,1,0,14.28,12.48,12.48,0,0,1-5.1,4.82,16,16,0,0,1-7.57,1.72A16.21,16.21,0,0,1,443.79,202.89Zm3-7.16a6.79,6.79,0,0,0,9.23,0,7.35,7.35,0,0,0,0-9.57,6.07,6.07,0,0,0-4.59-1.84,6.15,6.15,0,0,0-4.62,1.84,7.32,7.32,0,0,0,0,9.57Z"/><path class="cls-23" d="M470.82,177.91h7.52l.1,3.58a12,12,0,0,1,3.84-3,10.86,10.86,0,0,1,4.74-1,9.16,9.16,0,0,1,7.07,2.82,10.39,10.39,0,0,1,2.62,7.37V204h-8.23v-14c0-3.43-1.44-5.15-4.34-5.15a4.77,4.77,0,0,0-3.76,1.52,5.93,5.93,0,0,0-1.33,4.08V204h-8.23Z"/><circle class="cls-2" cx="427.79" cy="169.34" r="5.13"/></svg>